<svg width="20" height="18" viewBox="0 0 20 18" fill="none" xmlns="http://www.w3.org/2000/svg">
<path d="M15.895 0.553C15.8118 0.38684 15.6841 0.247106 15.526 0.149439C15.3679 0.0517721 15.1858 2.82049e-05 15 0H4.99998C4.62098 0 4.27498 0.214 4.10498 0.553L0.104984 8.553C0.0354631 8.69193 -0.000732422 8.84515 -0.000732422 9.0005C-0.000732422 9.15585 0.0354631 9.30907 0.104984 9.448L4.10498 17.448C4.27498 17.786 4.62098 18 4.99998 18H15C15.379 18 15.725 17.786 15.895 17.447L19.895 9.447C19.9645 9.30807 20.0007 9.15485 20.0007 8.9995C20.0007 8.84415 19.9645 8.69093 19.895 8.552L15.895 0.553ZM17.382 8H9.61798L6.61798 2H14.382L17.382 8ZM14.382 16H6.61798L9.61798 10H17.382L14.382 16Z" fill="black"/>
</svg>
